<svg width="95" height="46" viewBox="0 0 95 46" fill="none" xmlns="http://www.w3.org/2000/svg">
<path d="M12.609 35.628C12.609 36.612 12.462 37.497 12.168 38.283C11.874 39.069 11.46 39.738 10.926 40.29C10.392 40.842 9.75 41.265 9 41.559C8.256 41.853 7.434 42 6.534 42H1.881V29.265H6.534C7.434 29.265 8.256 29.412 9 29.706C9.75 30 10.392 30.423 10.926 30.975C11.46 31.527 11.874 32.196 12.168 32.982C12.462 33.768 12.609 34.65 12.609 35.628ZM11.655 35.628C11.655 34.74 11.532 33.948 11.286 33.252C11.04 32.556 10.692 31.968 10.242 31.488C9.792 31.008 9.252 30.642 8.622 30.39C7.992 30.138 7.296 30.012 6.534 30.012H2.808V41.253H6.534C7.296 41.253 7.992 41.127 8.622 40.875C9.252 40.623 9.792 40.257 10.242 39.777C10.692 39.297 11.04 38.709 11.286 38.013C11.532 37.317 11.655 36.522 11.655 35.628ZM21.7825 37.374L19.1905 30.939C19.1005 30.729 19.0135 30.477 18.9295 30.183C18.8935 30.327 18.8545 30.465 18.8125 30.597C18.7705 30.723 18.7255 30.84 18.6775 30.948L16.0855 37.374H21.7825ZM24.5995 42H23.8885C23.8045 42 23.7355 41.979 23.6815 41.937C23.6275 41.889 23.5855 41.829 23.5555 41.757L22.0615 38.058H15.8065L14.3125 41.757C14.2885 41.823 14.2465 41.88 14.1865 41.928C14.1265 41.976 14.0545 42 13.9705 42H13.2685L18.4795 29.265H19.3885L24.5995 42ZM36.1785 29.265V42H35.7465C35.6685 42 35.6025 41.988 35.5485 41.964C35.5005 41.934 35.4525 41.886 35.4045 41.82L27.1335 30.768C27.1515 30.948 27.1605 31.119 27.1605 31.281V42H26.3505V29.265H26.8095C26.8935 29.265 26.9565 29.277 26.9985 29.301C27.0465 29.319 27.0975 29.364 27.1515 29.436L35.4045 40.461C35.3865 40.281 35.3775 40.11 35.3775 39.948V29.265H36.1785ZM50.3063 35.628C50.3063 36.612 50.1593 37.497 49.8653 38.283C49.5713 39.069 49.1573 39.738 48.6233 40.29C48.0893 40.842 47.4473 41.265 46.6973 41.559C45.9533 41.853 45.1313 42 44.2313 42H39.5783V29.265H44.2313C45.1313 29.265 45.9533 29.412 46.6973 29.706C47.4473 30 48.0893 30.423 48.6233 30.975C49.1573 31.527 49.5713 32.196 49.8653 32.982C50.1593 33.768 50.3063 34.65 50.3063 35.628ZM49.3523 35.628C49.3523 34.74 49.2293 33.948 48.9833 33.252C48.7373 32.556 48.3893 31.968 47.9393 31.488C47.4893 31.008 46.9493 30.642 46.3193 30.39C45.6893 30.138 44.9933 30.012 44.2313 30.012H40.5053V41.253H44.2313C44.9933 41.253 45.6893 41.127 46.3193 40.875C46.9493 40.623 47.4893 40.257 47.9393 39.777C48.3893 39.297 48.7373 38.709 48.9833 38.013C49.2293 37.317 49.3523 36.522 49.3523 35.628ZM60.5441 41.235L60.5261 42H52.8941V29.265H60.5261V30.03H53.8211V35.178H59.4011V35.925H53.8211V41.235H60.5441ZM63.9025 35.142H64.6585C64.7725 35.142 64.8715 35.139 64.9555 35.133C65.0395 35.121 65.1145 35.103 65.1805 35.079C65.2525 35.055 65.3155 35.022 65.3695 34.98C65.4295 34.932 65.4925 34.875 65.5585 34.809L70.6975 29.526C70.7875 29.424 70.8745 29.355 70.9585 29.319C71.0485 29.283 71.1535 29.265 71.2735 29.265H72.0115L66.4495 34.98C66.3355 35.1 66.2335 35.193 66.1435 35.259C66.0595 35.325 65.9635 35.379 65.8555 35.421C65.9815 35.457 66.0955 35.514 66.1975 35.592C66.2995 35.664 66.4015 35.76 66.5035 35.88L72.3625 42H71.6155C71.4595 42 71.3455 41.982 71.2735 41.946C71.2075 41.904 71.1415 41.841 71.0755 41.757L65.6935 36.249C65.6275 36.183 65.5645 36.126 65.5045 36.078C65.4505 36.03 65.3875 35.991 65.3155 35.961C65.2495 35.925 65.1685 35.901 65.0725 35.889C64.9825 35.871 64.8655 35.862 64.7215 35.862H63.9025V42H62.9755V29.265H63.9025V35.142ZM80.9083 37.374L78.3163 30.939C78.2263 30.729 78.1393 30.477 78.0553 30.183C78.0193 30.327 77.9803 30.465 77.9383 30.597C77.8963 30.723 77.8513 30.84 77.8033 30.948L75.2113 37.374H80.9083ZM83.7253 42H83.0143C82.9303 42 82.8613 41.979 82.8073 41.937C82.7533 41.889 82.7113 41.829 82.6813 41.757L81.1873 38.058H74.9323L73.4383 41.757C73.4143 41.823 73.3723 41.88 73.3123 41.928C73.2523 41.976 73.1803 42 73.0963 42H72.3943L77.6053 29.265H78.5143L83.7253 42ZM88.6082 35.556C89.1722 35.556 89.6762 35.49 90.1202 35.358C90.5702 35.22 90.9482 35.025 91.2542 34.773C91.5662 34.521 91.8032 34.218 91.9652 33.864C92.1272 33.51 92.2082 33.111 92.2082 32.667C92.2082 31.761 91.9112 31.089 91.3172 30.651C90.7292 30.213 89.8682 29.994 88.7342 29.994H86.4032V35.556H88.6082ZM94.2602 42H93.4682C93.3662 42 93.2792 41.985 93.2072 41.955C93.1412 41.919 93.0782 41.856 93.0182 41.766L88.9322 36.6C88.8842 36.534 88.8332 36.477 88.7792 36.429C88.7312 36.381 88.6742 36.345 88.6082 36.321C88.5482 36.291 88.4732 36.27 88.3832 36.258C88.2992 36.246 88.1942 36.24 88.0682 36.24H86.4032V42H85.4762V29.265H88.7342C90.1982 29.265 91.2932 29.55 92.0192 30.12C92.7512 30.684 93.1172 31.515 93.1172 32.613C93.1172 33.099 93.0332 33.543 92.8652 33.945C92.6972 34.347 92.4542 34.701 92.1362 35.007C91.8242 35.307 91.4432 35.553 90.9932 35.745C90.5492 35.937 90.0482 36.066 89.4902 36.132C89.6342 36.222 89.7632 36.342 89.8772 36.492L94.2602 42Z" fill="white"/>
<path d="M10.406 24L5.544 17.202V24H1.232V8.49H5.544V15.178L10.362 8.49H15.334L9.636 16.014L15.62 24H10.406ZM25.8189 8.49V17.488C25.8189 18.324 26.0096 18.9693 26.3909 19.424C26.7869 19.8787 27.3809 20.106 28.1729 20.106C28.9649 20.106 29.5589 19.8787 29.9549 19.424C30.3656 18.9547 30.5709 18.3093 30.5709 17.488V8.49H34.8829V17.488C34.8829 18.9107 34.5822 20.128 33.9809 21.14C33.3796 22.1373 32.5582 22.8927 31.5169 23.406C30.4902 23.9047 29.3462 24.154 28.0849 24.154C26.8236 24.154 25.6942 23.9047 24.6969 23.406C23.7142 22.8927 22.9369 22.1373 22.3649 21.14C21.8076 20.1427 21.5289 18.9253 21.5289 17.488V8.49H25.8189ZM56.023 24H51.711L45.969 15.332V24H41.657V8.49H45.969L51.711 17.268V8.49H56.023V24ZM72.6913 21.47H67.1913L66.3553 24H61.8233L67.4773 8.49H72.4493L78.0813 24H73.5273L72.6913 21.47ZM71.6133 18.17L69.9413 13.154L68.2913 18.17H71.6133ZM88.1987 20.7H93.0167V24H83.8867V8.49H88.1987V20.7Z" fill="white"/>
</svg>
